# xmcd CD database file
#
# Track frame offsets:
#	150
#	15749
#	33720
#	49381
#	69517
#	85245
#	109213
#	129856
#	142610
#	152829
#	167363
#	240893
#	258182
#	275738
#	298932
#
# Disc length: 4725 seconds
#
# Revision: 0
# Processed by: cddbd v1.5.1PL0 Copyright (c) Steve Scherf et al.
# Submitted via: CDex 1.51
#
DISCID=cb12730f
DTITLE=Miles Davis - Miles Ahead (1-10) Sketches Of Spain (11-15)
DYEAR=1900
DGENRE=Jazz
TTITLE0=01-Springsville
TTITLE1=02-The Maids of Cadiz
TTITLE2=03-The Duke
TTITLE3=04-My Ship
TTITLE4=05-Miles Ahead
TTITLE5=06-Blues For Pablo
TTITLE6=07-New Rhumba
TTITLE7=08-The Meaning of the Blues
TTITLE8=09-Lament
TTITLE9=10-I Don't Wanna Be Kissed (By Anyone But You)
TTITLE10=01-Concierto De Aranjuez (Adagio)
TTITLE11=02-Will O' the Wisp
TTITLE12=03-The Pan Piper
TTITLE13=04-Saeta
TTITLE14=05-Solea
EXTD=
EXTT0=
EXTT1=
EXTT2=
EXTT3=
EXTT4=
EXTT5=
EXTT6=
EXTT7=
EXTT8=
EXTT9=
EXTT10=
EXTT11=
EXTT12=
EXTT13=
EXTT14=
PLAYORDER=
